# xmcd
#
# Track frame offsets:
#	150
#	19143
#	35042
#	53708
#	74700
#	91063
#	109428
#	124049
#	139243
#	155239
#	178034
#	197595
#	212706
#	226786
#	238678
#	260665
#	278845
#	292062
#	305752
#	322706
#
# Disc length: 4617 seconds
#
# Revision: 2
# Processed by: cddbd v1.5.2PL0 Copyright (c) Steve Scherf et al.
# Submitted via: EZCDAudioConverter 2.1.7.1
#
DISCID=33120714
DTITLE=Mimi Farina and Tom Jans - Take Heart - Tom Jans
DYEAR=1900
DGENRE=
TTITLE0=Carolina
TTITLE1=Charlotte
TTITLE2=Kings And Queens
TTITLE3=The Great White Horse
TTITLE4=Reach Out (For Chris Ross)
TTITLE5=Madman
TTITLE6=In The Quiet Morning
TTITLE7=Letter To Jesus
TTITLE8=After The Sugar Harvest
TTITLE9=No Need To Be Lonely
TTITLE10=Margarita
TTITLE11=Old Time Feeling
TTITLE12=Tender Memory
TTITLE13=Slippin' Away
TTITLE14=Green River
TTITLE15=Blue Sky Rider
TTITLE16=Loving Arms
TTITLE17=Free And Easy
TTITLE18=(Why Don't You) Meet Me At The Border
TTITLE19=Hart's Island
EXTD=
EXTT0=
EXTT1=
EXTT2=
EXTT3=
EXTT4=
EXTT5=
EXTT6=
EXTT7=
EXTT8=
EXTT9=
EXTT10=
EXTT11=
EXTT12=
EXTT13=
EXTT14=
EXTT15=
EXTT16=
EXTT17=
EXTT18=
EXTT19=
PLAYORDER=
